<svg width="207" height="44" viewBox="0 0 207 44" fill="none" xmlns="http://www.w3.org/2000/svg">
<path d="M35.8742 17.0146H4.93777C2.21446 17.0146 0 19.2492 0 21.9973C0 24.7453 2.21446 26.9799 4.93777 26.9799H35.8742C38.5975 26.9799 40.812 24.7453 40.812 21.9973C40.812 19.2492 38.5975 17.0146 35.8742 17.0146Z" fill="url(#paint0_linear_5_1242)"/>
<path d="M112.655 17.0337C113.116 16.9005 113.625 16.7389 114.191 16.5582C114.747 16.3776 115.378 16.2159 116.075 16.0638C116.773 15.9116 117.545 15.788 118.403 15.6929C119.26 15.5978 120.24 15.5503 121.324 15.5503C124.537 15.5503 126.752 16.4822 127.949 18.3554C129.145 20.2286 129.353 22.7865 128.561 26.029L125.781 37.7439H119.694L122.389 26.2763C122.549 25.5631 122.681 24.869 122.775 24.1938C122.869 23.5187 122.86 22.9292 122.756 22.4157C122.643 21.9022 122.398 21.4933 122.003 21.1795C121.607 20.8657 121.004 20.7041 120.184 20.7041C119.364 20.7041 118.591 20.7897 117.772 20.9513L113.804 37.7439H107.708L112.655 17.0337Z" fill="#100146"/>
<path d="M137.051 6.71631H143.129L141.904 11.8606H148.19L146.965 16.8908H140.717L137.937 28.6627C137.777 29.2998 137.673 29.8893 137.626 30.4409C137.589 30.9924 137.654 31.4678 137.834 31.8672C138.013 32.2666 138.314 32.5804 138.757 32.7991C139.19 33.0178 139.794 33.1319 140.557 33.1319C141.207 33.1319 141.848 33.0653 142.46 32.9417C143.073 32.8181 143.695 32.6469 144.317 32.4282L144.769 37.1351C143.949 37.4394 143.063 37.6961 142.112 37.9148C141.16 38.1335 140.029 38.2476 138.719 38.2476C136.835 38.2476 135.383 37.9624 134.347 37.4013C133.31 36.8403 132.575 36.0701 132.142 35.0907C131.708 34.1113 131.511 32.9892 131.567 31.7246C131.624 30.4599 131.812 29.1286 132.142 27.7213L137.061 6.71631H137.051Z" fill="#100146"/>
<path d="M147.351 29.2524C147.351 27.4933 147.653 25.7817 148.275 24.1367C148.887 22.4821 149.754 21.0178 150.875 19.7436C151.997 18.4599 153.354 17.4329 154.946 16.6532C156.539 15.8735 158.301 15.4741 160.242 15.4741C161.194 15.4741 162.08 15.6168 162.899 15.883C163.719 16.1588 164.435 16.5581 165.048 17.0811C165.66 17.6041 166.141 18.2412 166.48 19.0019C166.819 19.7626 166.989 20.6184 166.989 21.5788C166.989 23.1192 166.65 24.4219 165.971 25.4964C165.293 26.5709 164.341 27.4457 163.126 28.1209C161.91 28.796 160.478 29.281 158.81 29.5852C157.142 29.8895 155.333 30.0417 153.373 30.0417C153.561 31.1922 153.976 32.0195 154.616 32.4949C155.257 32.9799 156.275 33.2176 157.66 33.2176C158.536 33.2176 159.422 33.1415 160.317 32.9894C161.213 32.8373 162.061 32.6091 162.852 32.3048L163.305 37.1353C162.541 37.4395 161.571 37.7153 160.383 37.9625C159.196 38.2098 157.905 38.3334 156.52 38.3334C154.833 38.3334 153.401 38.0956 152.251 37.6107C151.092 37.1257 150.15 36.4791 149.434 35.6519C148.708 34.8246 148.19 33.8642 147.86 32.7612C147.53 31.6582 147.37 30.4886 147.37 29.2524H147.351ZM159.253 20.3426C157.867 20.3426 156.642 20.8466 155.596 21.845C154.55 22.853 153.863 24.1747 153.533 25.8292C155.219 25.7722 156.586 25.6296 157.622 25.3918C158.659 25.1541 159.46 24.8784 160.035 24.5456C160.61 24.2127 160.986 23.8609 161.184 23.4711C161.373 23.0907 161.467 22.7008 161.467 22.311C161.467 20.9892 160.732 20.3331 159.262 20.3331L159.253 20.3426Z" fill="#100146"/>
<path d="M168.091 29.081C168.091 27.2078 168.393 25.4486 168.986 23.8036C169.59 22.1491 170.447 20.7132 171.559 19.4676C172.68 18.2314 174.037 17.252 175.63 16.5389C177.222 15.8257 179.003 15.4644 180.963 15.4644C182.188 15.4644 183.291 15.5785 184.252 15.8162C185.223 16.0539 186.099 16.3582 186.891 16.748L184.808 21.531C184.261 21.3123 183.696 21.1126 183.112 20.9319C182.528 20.7513 181.811 20.6657 180.963 20.6657C178.919 20.6657 177.307 21.3598 176.139 22.7481C174.97 24.1364 174.377 26.0287 174.377 28.4249C174.377 29.8322 174.678 30.9638 175.272 31.8291C175.875 32.6944 176.977 33.1318 178.579 33.1318C179.371 33.1318 180.134 33.0462 180.869 32.8846C181.604 32.7229 182.264 32.5137 182.829 32.2665L183.281 37.173C182.518 37.4773 181.68 37.7436 180.765 37.9813C179.851 38.219 178.739 38.3331 177.43 38.3331C175.743 38.3331 174.311 38.0859 173.133 37.5914C171.964 37.097 170.994 36.4313 170.23 35.5946C169.467 34.7578 168.911 33.7689 168.572 32.6468C168.233 31.5153 168.063 30.3362 168.063 29.1L168.091 29.081Z" fill="#100146"/>
<path d="M200.263 15.6737C201.431 15.6737 202.439 15.8448 203.287 16.1871C204.135 16.5295 204.823 17.0144 205.37 17.6325C205.916 18.2506 206.322 18.9922 206.595 19.8385C206.868 20.6943 207 21.6167 207 22.6056C207 23.7562 206.859 24.9067 206.595 26.0288L203.815 37.7437H197.718L200.413 26.276C200.517 25.8101 200.621 25.3156 200.724 24.7926C200.819 24.2696 200.866 23.7752 200.866 23.3093C200.866 22.5961 200.677 21.978 200.31 21.4741C199.942 20.9606 199.235 20.7133 198.208 20.7133C197.775 20.7133 196.908 20.7419 196.522 20.7989C196.126 20.856 195.739 20.9225 195.353 21.0081L191.386 37.7627H185.289L192.658 6.73535H198.764L196.493 16.1016C197.087 16.016 198.039 15.8924 198.595 15.8163C199.151 15.7307 199.707 15.6927 200.253 15.6927L200.263 15.6737Z" fill="#100146"/>
<path d="M67.4136 37.7533L72.8131 14.8941C73.4915 11.9748 74.7166 9.72125 76.4976 8.12377C78.2691 6.52628 80.7663 5.72754 83.9796 5.72754C85.2046 5.72754 86.2789 5.86066 87.1929 6.1174C88.107 6.38365 88.7949 6.62137 89.2566 6.84007L87.2118 11.6706C86.7218 11.4233 86.1564 11.2332 85.5156 11.1095C84.8748 10.9859 84.2811 10.9194 83.7346 10.9194C82.2363 10.9194 81.1244 11.3092 80.3988 12.0699C79.6732 12.8401 79.1738 13.8005 78.9099 14.9606L78.6649 16.0351H85.8642L84.6392 21.0653H77.487L73.5387 37.7343H67.423L67.4136 37.7533Z" fill="#100146"/>
<path d="M56.69 22.0825L46.2208 3.77796C45.1842 1.97128 43.5258 0.763659 41.6788 0.25969C39.8319 -0.244278 37.787 -0.025575 35.9966 1.01089L17.8569 11.5847C15.7932 12.7828 14.5211 14.8367 14.2007 17.0428H20.4671C20.5519 16.7385 20.6367 16.4152 20.731 16.0444L38.3901 5.7558C39.0591 5.93647 39.5774 6.0791 40.0957 6.21222C40.614 6.35486 41.1323 6.49749 41.8013 6.66865L51.9972 24.4882C51.6391 25.829 51.4413 26.5802 51.0832 27.9304L33.4241 38.219C32.755 38.0383 32.2367 37.8957 31.7185 37.7626C31.2002 37.6294 30.6819 37.4773 30.0129 37.3061L24.1233 27.0081H18.0454L25.5934 40.2063C26.6299 42.013 28.2884 43.2206 30.1354 43.7246C31.9823 44.2286 34.0271 44.0099 35.8176 42.9734L53.9573 32.3996C57.5381 30.3171 58.7631 25.6958 56.6994 22.0825H56.69Z" fill="#100146"/>
<path d="M102.553 37.7534H105.663C105.107 36.5362 104.636 34.6915 104.475 33.1131C104.315 31.5346 104.419 29.9561 104.805 28.3872L107.708 16.0542H101.611L98.9534 27.3222C98.878 27.655 98.812 27.9973 98.7461 28.3586L97.898 31.934C97.4457 32.3238 97.0122 32.6091 96.5976 32.7898C96.0699 33.0275 95.4856 33.1416 94.8637 33.1416C94.1287 33.1416 93.5916 32.9704 93.2523 32.6281C92.9131 32.2858 92.7058 31.8484 92.621 31.3064C92.5362 30.7739 92.5456 30.1843 92.6398 29.5568C92.734 28.9197 92.8471 28.3016 92.9885 27.7025L95.7306 16.0637H89.6338L86.854 27.7786C86.5241 29.1003 86.3828 30.3935 86.4205 31.6582C86.4582 32.9229 86.7315 34.0449 87.2215 35.0243C87.7115 36.0037 88.4559 36.7835 89.4453 37.373C90.4442 37.9626 91.7446 38.2573 93.3466 38.2573C94.515 38.2573 95.5799 38.0481 96.541 37.6393C97.4928 37.2304 98.3503 36.7169 99.1136 36.1083C99.3303 36.7074 99.5659 37.2494 99.8015 37.7629H102.544L102.553 37.7534Z" fill="#100146"/>
<defs>
<linearGradient id="paint0_linear_5_1242" x1="0" y1="21.9973" x2="34.4042" y2="21.9973" gradientUnits="userSpaceOnUse">
<stop offset="0.06" stop-color="#BC00AD" stop-opacity="0"/>
<stop offset="1" stop-color="#BC00AD"/>
</linearGradient>
</defs>
</svg>
